<svg xmlns="http://www.w3.org/2000/svg" viewBox="0 0 293.28 293.28"><defs><style>.cls-1{fill:#0f0f0f;}.cls-2{fill:#fff;}</style></defs><g id="Layer_2" data-name="Layer 2"><g id="Layer_3" data-name="Layer 3"><circle class="cls-1" cx="146.64" cy="146.64" r="146.64"/><path class="cls-2" d="M210.31,127.9c9.94,0,18.24,8.72,18.06,18.89s-8.39,18.54-18,18.63c-9.83.09-18.18-8.55-18.19-18.82S200.27,127.87,210.31,127.9Z"/><path class="cls-2" d="M128.59,211c0-10.5,7.91-18.82,18-18.82s18,8.37,17.95,18.85c0,10.27-7.94,18.53-17.76,18.62C136.71,229.7,128.62,221.4,128.59,211Z"/><path class="cls-2" d="M128.59,146.62c0-10.48,7.94-18.75,18-18.72s18,8.37,17.89,18.87c-.07,10.22-8,18.53-17.83,18.64S128.6,157,128.59,146.62Z"/><path class="cls-2" d="M210.15,63.66a18.46,18.46,0,0,1,18.22,18.68c0,10.27-8.38,18.78-18.31,18.67s-17.81-8.33-17.91-18.55S200.1,63.68,210.15,63.66Z"/><path class="cls-2" d="M128.59,82.32c0-10.5,7.91-18.69,18-18.66s18,8.3,17.88,18.82c-.07,10.29-7.91,18.43-17.83,18.53S128.6,92.81,128.59,82.32Z"/><path class="cls-2" d="M82.71,192.14C92.64,192,101,200.52,101,210.8c0,10-8,18.64-17.72,18.82-10,.17-18.22-8-18.39-18.45S72.68,192.25,82.71,192.14Z"/><path class="cls-2" d="M210.28,229.62c-9.94,0-18.16-8.47-18.14-18.78s8.25-18.78,18.22-18.7c9.75.09,17.86,8.44,18,18.57S220.18,229.58,210.28,229.62Z"/><path class="cls-2" d="M83.05,63.66c10,.06,18.14,8.62,18,18.89S92.77,101,83,101c-10.06,0-18.08-8.29-18-18.75S72.91,63.6,83.05,63.66Z"/><path class="cls-2" d="M82.81,127.9c10,0,18.22,8.41,18.21,18.7s-8.46,18.91-18.24,18.82S65,157,64.91,146.79C64.8,136.35,72.77,127.93,82.81,127.9Z"/></g></g></svg>