<svg xmlns="http://www.w3.org/2000/svg" viewBox="0 0 293.28 293.28"><defs><style>.cls-1{fill:#0f0f0f;}.cls-2,.cls-3{fill:none;stroke:#fff;stroke-linecap:round;stroke-linejoin:round;}.cls-2{stroke-width:7px;}.cls-3{stroke-width:6px;}.cls-4{fill:#fff;}</style></defs><g id="Layer_2" data-name="Layer 2"><g id="Layer_7" data-name="Layer 7"><circle class="cls-1" cx="146.64" cy="146.64" r="146.64"/><path class="cls-2" d="M165.65,221.66c24.45-31.48,36.14-46.53,43.12-56.52,11.93-17.1,18.2-37.72,16.51-58.5-.13-1.61-.3-3.22-.51-4.81-9-69.45-99.93-93.3-141.18-36.71-25.95,35.6-17.06,89.6,50.9,156.54Z"/><path class="cls-2" d="M143.59,221.66C99.9,127.84,112.73,64,140.1,39.3a12.93,12.93,0,0,1,16.14-1c35.15,24.81,38,95.78-1.62,183.32"/><line class="cls-3" x1="134.49" y1="221.66" x2="134.49" y2="237.35"/><path class="cls-4" d="M132.68,233.52a127.92,127.92,0,0,1,33.8,0,1.41,1.41,0,0,1,1.25,1.36v22.26a1.39,1.39,0,0,1-1.16,1.34c-10.65,2-22,1.82-33.93,0a1.4,1.4,0,0,1-1.22-1.36v-22.2A1.41,1.41,0,0,1,132.68,233.52Z"/><line class="cls-2" x1="164.16" y1="222.9" x2="164.16" y2="238.58"/></g></g></svg>