<svg xmlns="http://www.w3.org/2000/svg" viewBox="0 0 293.28 293.28"><defs><style>.cls-1{fill:#0f0f0f;}.cls-2{fill:#fff;}.cls-3{fill:none;stroke:#fff;stroke-linecap:round;stroke-linejoin:round;stroke-width:6px;}</style></defs><g id="Layer_2" data-name="Layer 2"><g id="Layer_9" data-name="Layer 9"><circle class="cls-1" cx="146.64" cy="146.64" r="146.64"/><path class="cls-2" d="M43.28,182.75H72.45c2,0,3.61,2.21,3.61,4.93v6c0,2.72-1.61,4.93-3.61,4.93H43.28"/><path class="cls-3" d="M250,178.19V203a7.61,7.61,0,0,1-7.6,7.61H50.88a7.6,7.6,0,0,1-7.6-7.61V178.19A20.29,20.29,0,0,1,63.57,157.9H229.71A20.29,20.29,0,0,1,250,178.19Z"/><path class="cls-2" d="M93.4,210.61a12.57,12.57,0,0,1-25.14,0Z"/><path class="cls-2" d="M220.91,210.61a12.57,12.57,0,0,1-25.14,0Z"/><line class="cls-3" x1="44.63" y1="170.91" x2="244.62" y2="170.91"/><circle class="cls-2" cx="223.58" cy="192.52" r="9.76"/><line class="cls-3" x1="66.85" y1="144.23" x2="226.43" y2="144.23"/><line class="cls-3" x1="76.06" y1="144.87" x2="76.06" y2="156.51"/><line class="cls-3" x1="217.21" y1="144.85" x2="217.21" y2="156.49"/><rect class="cls-3" x="90.05" y="98.8" width="56.59" height="44.33"/><polyline class="cls-2" points="107.69 98.8 107.69 116.76 128.99 116.76 128.99 98.8"/><rect class="cls-3" x="146.64" y="98.8" width="56.59" height="44.33"/><polyline class="cls-2" points="164.28 98.8 164.28 116.76 185.58 116.76 185.58 98.8"/><rect class="cls-3" x="122.73" y="54.48" width="56.59" height="44.33"/><polyline class="cls-2" points="140.37 54.48 140.37 72.45 161.67 72.45 161.67 54.48"/></g></g></svg>