<svg xmlns="http://www.w3.org/2000/svg" viewBox="0 0 293.28 293.28" style="fill:#0f0f0f" fill="white"><defs>
<style>.cls-1{fill:#0f0f0f;}.cls-2{fill:none;stroke:#fff;stroke-linecap:round;stroke-linejoin:round;stroke-width:6px;}.cls-3{fill:#fff;}</style></defs>
<g id="Layer_2" data-name="Layer 2" style="fill:#0f0f0f" fill="white">
<g id="Layer_8" data-name="Layer 8" style="fill:#0f0f0f" fill="white">
<path class="cls-1" d="M293.28,146.64a146.23,146.23,0,0,1-9.14,51.05,142.29,142.29,0,0,1-9.2,20c-1,1.83-2.05,3.62-3.13,5.4s-2,3.27-3.12,4.87a144.89,144.89,0,0,1-9.75,13c-1.61,1.92-3.28,3.8-5,5.63q-1.53,1.65-3.11,3.24a146.63,146.63,0,1,1,42.44-103.16Z" style="fill:#0f0f0f" fill="white"/>
<path class="cls-2" d="M96,205.67v22.87a13.11,13.11,0,0,1-13.1,13.1,14.89,14.89,0,1,0-25,0H34.93a147.44,147.44,0,0,1-16.48-23.72V205.67a11.45,11.45,0,0,1,.23-2.36v0a13.1,13.1,0,0,1,12.88-10.7H82.85A13.1,13.1,0,0,1,96,205.67Z" fill="white" />
<path class="cls-2" d="M82.85,192.57l-13.19-4.65a45.74,45.74,0,0,1-30.51-42.15l-.07-3.21L37.35,61.89a4.1,4.1,0,0,0-4.11-4H29.91" style="fill:#0f0f0f" fill="white" />
<path class="cls-2" d="M18.62,75.07c.31,35.13.87,113,.06,128.2a17.91,17.91,0,0,1-.22,2.4" style="fill:#0f0f0f" fill="white" />
<path class="cls-3" d="M70.35,213.46a20.09,20.09,0,1,0,16.85,31h0a20.1,20.1,0,0,0-16.86-31ZM77.25,238h0a8.22,8.22,0,1,1,1.32-4.47A8.18,8.18,0,0,1,77.24,238Z" fill="white"/>
<path class="cls-3" d="M165.52,212.55a20.09,20.09,0,1,0,16.85,31h0a20.1,20.1,0,0,0-16.86-31Zm6.9,24.56h0a8.22,8.22,0,1,1,1.32-4.47A8.18,8.18,0,0,1,172.41,237.11Z" fill="white"/>
<path class="cls-3" d="M262.83,213.59a20.08,20.08,0,0,0-12,36.21q1.57-1.59,3.11-3.24c1.71-1.83,3.38-3.71,5-5.63a8.22,8.22,0,1,1,9.75-13c1.08-1.6,2.12-3.23,3.12-4.87s2.13-3.57,3.13-5.4A20,20,0,0,0,262.83,213.59Z" fill="white"/>
<path class="cls-3" d="M39.08,142.56H75a6.72,6.72,0,0,1,6.72,6.73h0A6.72,6.72,0,0,1,75,156H41.82" fill="white"/>
<line class="cls-2" x1="30.42" y1="207.87" x2="30.42" y2="221.62" fill="white" />
<path class="cls-2" d="M191.11,205.8v22.87a13.1,13.1,0,0,1-13.1,13.1,14.89,14.89,0,1,0-25,0H126.72a13.1,13.1,0,0,1-13.1-13.1V205.8a13.11,13.11,0,0,1,13.1-13.11H178A13.11,13.11,0,0,1,191.11,205.8Z" fill="white"/>
<path class="cls-2" d="M113.62,205.79c1.29-5.35.26-120.24,0-143.65A4.1,4.1,0,0,1,117.77,58H128.4a4.1,4.1,0,0,1,4.11,4l1.8,83.88a45.75,45.75,0,0,0,30.51,42.15L178,192.69" fill="white"/>
<path class="cls-2" d="M180.4,233.68a14.78,14.78,0,0,1-2.39,8.09h0a14.88,14.88,0,1,1,2.4-8.09Z"/><path class="cls-3" d="M134.24,142.69h35.88a6.73,6.73,0,0,1,6.73,6.73h0a6.73,6.73,0,0,1-6.73,6.72H137"/><line class="cls-2" x1="125.59" y1="208" x2="125.59" y2="221.75" fill="white"/>
<path class="cls-2" d="M284.14,197.69a142.29,142.29,0,0,1-9.2,20c-1,1.83-2.05,3.62-3.13,5.4a14.9,14.9,0,0,0-23,18.65H222.51a13.1,13.1,0,0,1-13.09-13.1V205.73a13.56,13.56,0,0,1,.22-2.4v0a13.12,13.12,0,0,1,12.87-10.67h51.3A13,13,0,0,1,284.14,197.69Z" fill="white"/>
<path class="cls-2" d="M209.42,205.73c1.29-5.36.26-120.24,0-143.66a4.1,4.1,0,0,1,4.11-4.14H224.2a4.11,4.11,0,0,1,4.11,4l1.8,83.88A45.74,45.74,0,0,0,260.62,188l13.18,4.65" fill="white"/>
<path class="cls-2" d="M271.81,223.06c-1,1.64-2,3.27-3.12,4.87a144.89,144.89,0,0,1-9.75,13c-1.61,1.92-3.28,3.8-5,5.63a15,15,0,0,1-5.15-4.85,14.9,14.9,0,0,1,23-18.65Z" fill="white" />
<path class="cls-3" d="M230,142.63h35.88a6.72,6.72,0,0,1,6.72,6.72h0a6.73,6.73,0,0,1-6.72,6.73H232.78" fill="white"/>
<line class="cls-2" x1="221.38" y1="207.94" x2="221.38" y2="221.69" fill="white"/>
<line class="cls-2" x1="54.7" y1="256.61" x2="238.56" y2="256.61" fill="white"/></g></g></svg>