<svg xmlns="http://www.w3.org/2000/svg" viewBox="0 0 293.28 293.28"><circle cx="146.64" cy="146.64" r="146.64" style="fill:#0f0f0f"/><path d="M172.56,72.62A21.75,21.75,0,0,1,164,89.92h0a21.82,21.82,0,1,1,8.53-17.31Z" style="fill:#fff"/><path d="M134.37,128.25A21.85,21.85,0,1,1,126,111.09,21.83,21.83,0,0,1,134.37,128.25Z" style="fill:#fff"/><path d="M97.82,189.21a21.84,21.84,0,1,1-7.43-16.4A21.62,21.62,0,0,1,97.82,189.21Z" style="fill:#fff"/><path d="M239.11,189.21a21.83,21.83,0,1,1-29.55-20.41,21.56,21.56,0,0,1,7.73-1.42A21.83,21.83,0,0,1,239.11,189.21Z" style="fill:#fff"/><path d="M172.56,189.21a21.82,21.82,0,1,1-21.83-21.82A21.75,21.75,0,0,1,172.56,189.21Z" style="fill:#fff"/><path d="M123.77,147,139,170.82" style="fill:none;stroke:#fff;stroke-linecap:round;stroke-linejoin:round;stroke-width:6px"/><path d="M164,89.93l45.53,78.87" style="fill:none;stroke:#fff;stroke-linecap:round;stroke-linejoin:round;stroke-width:6px"/><path d="M126,111.09l12-20.75" style="fill:none;stroke:#fff;stroke-linecap:round;stroke-linejoin:round;stroke-width:6px"/><path d="M90.39,172.81l14-24.3" style="fill:none;stroke:#fff;stroke-linecap:round;stroke-linejoin:round;stroke-width:6px"/></svg>