<svg xmlns="http://www.w3.org/2000/svg" viewBox="0 0 293.28 293.28"><defs>
<style>.cls-1{fill:#0f0f0f;}.cls-2{fill:#fff;}.cls-3{fill:none;stroke:#fff;stroke-linecap:round;stroke-linejoin:round;stroke-width:6px;}</style></defs>
<g id="Layer_2" data-name="Layer 2">
<g id="Layer_2-2" data-name="Layer 2" >
<circle class="cls-1" cx="146.64" cy="146.64" r="146.64"/>
<path class="cls-2" d="M90.73,126.66H66.5A11.23,11.23,0,0,0,55.27,137.9v64.27A11.23,11.23,0,0,0,66.5,213.4H90.73A11.23,11.23,0,0,0,102,202.17V137.9A11.23,11.23,0,0,0,90.73,126.66Zm-2.67,68.08H69.75a3.5,3.5,0,0,1,0-7H88.06a3.5,3.5,0,0,1,0,7Z" fill="white"/>
<path class="cls-2" d="M156.63,126.66H132.41a11.24,11.24,0,0,0-11.24,11.24v64.27a11.23,11.23,0,0,0,11.24,11.23h24.22a11.23,11.23,0,0,0,11.24-11.23V137.9A11.24,11.24,0,0,0,156.63,126.66Zm-2.95,67.79H135.36a3.5,3.5,0,0,1,0-7h18.32a3.5,3.5,0,0,1,0,7Z" fill="white"/>
<path class="cls-2" d="M222.52,126.66H198.29a11.23,11.23,0,0,0-11.23,11.24v64.27a11.23,11.23,0,0,0,11.23,11.23h24.23a11.23,11.23,0,0,0,11.23-11.23V137.9A11.23,11.23,0,0,0,222.52,126.66Zm-3,67.79H201.25a3.5,3.5,0,0,1,0-7h18.31a3.5,3.5,0,0,1,0,7Z" fill="white"/>
<path class="cls-2" d="M185.64,80.57H59.7A4.43,4.43,0,0,0,55.27,85v16a4.43,4.43,0,0,0,4.43,4.43H185.64a4.43,4.43,0,0,0,4.43-4.43V85A4.43,4.43,0,0,0,185.64,80.57Zm-5.5,16.22H168.4a3.5,3.5,0,0,1,0-7h11.74a3.5,3.5,0,0,1,0,7Z" fill="white"/>
<path class="cls-3" d="M230.52,94.3A11.93,11.93,0,1,0,214,102.68" fill="white"/>
<polyline class="cls-3" points="221.98 93 230.78 98.94 238.01 93" fill="white"/></g></g></svg>