<svg xmlns="http://www.w3.org/2000/svg" viewBox="0 0 293.27 296.27">
<defs><style>.cls-1{fill:#0f0f0f;}.cls-2{fill:none;stroke:#fff;stroke-linecap:round;stroke-linejoin:round;stroke-width:6px;}.cls-3{fill:#fff;}</style>
</defs><g id="Layer_2" data-name="Layer 2">
<g id="Layer_5" data-name="Layer 5">
<path class="cls-1" d="M293.27,149.64A146.64,146.64,0,1,1,139.1,3.2Q142.29,3,145.54,3h1.09q5.43,0,10.77.39a145.7,145.7,0,0,1,57,16.17c1.39.73,2.77,1.47,4.13,2.24q5.43,3.06,10.57,6.57A146.47,146.47,0,0,1,293.27,149.64Z" />
<path class="cls-2" d="M137.37,176.27a50.1,50.1,0,0,1,8.59-4.94" fill="white"/>
<path class="cls-2" d="M135.16,177.94l0,0" fill="white"/>
<line class="cls-2" x1="124.12" y1="63.86" x2="208.26" y2="29.08" fill="white"/>
<path class="cls-3" d="M103,112.89a7.12,7.12,0,1,1,6.75-7.47A7.12,7.12,0,0,1,103,112.89Z" fill="white"/>
<path class="cls-2" d="M218.52,21.8c-1.36-.77-2.74-1.51-4.13-2.24a55.29,55.29,0,0,1-6.13,9.51A58.27,58.27,0,0,1,195.42,41L117.61,94a5.06,5.06,0,0,1-1,.43,4.51,4.51,0,0,1-5.53-5.9,4.9,4.9,0,0,1,.24-.52l12.76-24.14,25-47.33L151.52,12a51.59,51.59,0,0,1,5.88-8.63Q152.06,3,146.63,3h-1.09q-3.24,0-6.44.19L101.34,78.08l-.92,1.82h0l-5,9.94-10.34,20.5a10.18,10.18,0,0,0,9.59,14.73h.06a10.26,10.26,0,0,0,4.53-1.35l18.25-10.56,1.55-.9,1.93-1.12h0l6.81-4.81,92.05-65a19.2,19.2,0,0,0,9.24-13Q224,24.86,218.52,21.8Z" fill="white"/>
<path class="cls-2" d="M214.39,19.56a55.29,55.29,0,0,1-6.13,9.51A58.27,58.27,0,0,1,195.42,41L117.61,94a5.06,5.06,0,0,1-1,.43,4.51,4.51,0,0,1-5.53-5.9,4.9,4.9,0,0,1,.24-.52l12.76-24.14,25-47.33L151.52,12a51.59,51.59,0,0,1,5.88-8.63A145.7,145.7,0,0,1,214.39,19.56Z" fill="white"/>
<path class="cls-2" d="M214.39,19.56a55.29,55.29,0,0,1-6.13,9.51A58.27,58.27,0,0,1,195.42,41L117.61,94a5.06,5.06,0,0,1-1,.43,4.51,4.51,0,0,1-5.53-5.9,4.9,4.9,0,0,1,.24-.52l12.76-24.14,25-47.33L151.52,12a51.59,51.59,0,0,1,5.88-8.63A145.7,145.7,0,0,1,214.39,19.56Z" fill="white"/>
<line class="cls-2" x1="149.14" y1="16.53" x2="148.25" y2="71.5" fill="white"/>
<line class="cls-2" x1="188.08" y1="170.69" x2="127.49" y2="107.37" fill="white"/>
<path class="cls-3" d="M173.71,163.7a52.73,52.73,0,0,0-10.4-.32,52,52,0,0,0-10.76,1.8,54.4,54.4,0,0,0-17.25,8.2l-2.37,1.79a54.34,54.34,0,1,0,40.78-11.47Zm15.55,56.76a22.58,22.58,0,1,1-40.54-16.28,22.33,22.33,0,0,1,4.05-4.19l1-.75a22.38,22.38,0,0,1,7.16-3.4,22.59,22.59,0,0,1,8.79-.62A22.59,22.59,0,0,1,189.26,220.46Z" fill="white"/>
<polyline class="cls-2" points="64.11 78.27 92.91 73.09 74.08 107.37" fill="white"/>
<path class="cls-2" d="M89,136.35c1.9-.37,48.34-18.68,48.34-18.68L120.72,165l43.08-19.67" fill="white"/>
<path class="cls-2" d="M101.34,78.08,90.65,66.67l-7.34-7.84a14.37,14.37,0,0,0-3.44-2.72l-.11-.06a14.41,14.41,0,0,0-4.17-1.56h0A14.69,14.69,0,0,0,59,74.41l18.7,45.83A44.2,44.2,0,0,0,89,136.35l44.22,39.92" fill="white"/></g></g></svg>