<svg xmlns="http://www.w3.org/2000/svg" viewBox="0 0 293.28 293.28"><defs>
<style>.cls-1{fill:#0f0f0f;}.cls-2{fill:none;stroke:#fff;stroke-linecap:round;stroke-linejoin:round;stroke-width:7px;}</style>
</defs><g id="Layer_2" data-name="Layer 2"><g id="Layer_6" data-name="Layer 6">
<circle class="cls-1" cx="146.64" cy="146.64" r="146.64"/>
<rect class="cls-2" x="141.99" y="85.18" width="10.2" height="11.16" fill="white"/>
<line class="cls-2" x1="142.67" y1="90.76" x2="152.19" y2="90.76" fill="white"/>
<path class="cls-2" d="M142,85.18c-22.24-21.92-25.15-39.6-16.66-51.25,13.51-18.53,43.28-10.72,46.23,12,.06.53.12,1.05.16,1.58a29.45,29.45,0,0,1-5.41,19.15c-2.28,3.27-6.11,8.2-14.11,18.51" fill="white"/>
<path class="cls-2" d="M145,85.18c-14.31-30.72-10.11-51.63-1.15-59.71a4.23,4.23,0,0,1,5.29-.31c11.51,8.12,12.45,31.35-.53,60" fill="white"/>
<rect class="cls-2" x="141.99" y="196.94" width="10.2" height="11.16" fill="white"/>
<line class="cls-2" x1="142.67" y1="202.52" x2="152.19" y2="202.52" fill="white"/>
<path class="cls-2" d="M142,208.1c-22.24,21.92-25.15,39.6-16.66,51.25,13.51,18.53,43.28,10.72,46.23-12,.06-.52.12-1,.16-1.57a29.43,29.43,0,0,0-5.41-19.15c-2.28-3.27-6.11-8.2-14.11-18.51" fill="white"/>
<path class="cls-2" d="M145,208.1c-14.31,30.72-10.11,51.63-1.15,59.71a4.26,4.26,0,0,0,5.29.31c11.51-8.12,12.45-31.36-.53-60" fill="white"/>
<rect class="cls-2" x="187.91" y="111.5" width="11.16" height="10.2" transform="translate(-32.26 125.19) rotate(-33.25)" fill="white"/>
<line class="cls-2" x1="191.07" y1="112.91" x2="196.29" y2="120.87" fill="white"/>
<path class="cls-2" d="M195.36,109.28c6.13-30.63,19.32-42.76,33.72-42,22.9,1.13,32.7,30.31,15.3,45.24-.4.34-.81.68-1.23,1a29.45,29.45,0,0,1-19,6c-4-.12-10.21-.62-23.22-1.66" fill="white"/>
<path class="cls-2" d="M197,111.77C214.84,83,234.63,75,246.3,78.08a4.21,4.21,0,0,1,3.15,4.24C249,96.4,230.06,109.93,199,114.79" fill="white"/>
<rect class="cls-2" x="94.45" y="172.79" width="11.16" height="10.2" transform="translate(-81.17 83.98) rotate(-33.25)" fill="white"/>
<line class="cls-2" x1="97.6" y1="174.19" x2="102.83" y2="182.15" fill="white"/>
<path class="cls-2" d="M92.56,176.68c-30.52-6.58-46.91.68-52,14.17C32.48,212.3,55.34,232.92,76,222.92c.48-.23,1-.48,1.41-.73a29.48,29.48,0,0,0,13-15c1.49-3.71,3.51-9.61,7.74-21.95" fill="white"/>
<path class="cls-2" d="M94.2,179.17C60.67,184.06,45.48,199,43.64,211a4.24,4.24,0,0,0,2.64,4.59c13.1,5.17,33.05-6.78,49.9-33.36" fill="white"/>
<rect class="cls-2" x="188.88" y="170.3" width="10.2" height="11.16" transform="translate(-56.42 252.42) rotate(-59.19)" fill="white"/>
<line class="cls-2" x1="196.25" y1="172.08" x2="191.37" y2="180.26" fill="white"/>
<path class="cls-2" d="M201.39,174.36c30.22-7.89,46.9-1.33,52.56,11.93,9,21.09-13,42.67-34,33.55-.48-.21-1-.43-1.43-.67a29.47,29.47,0,0,1-13.69-14.45c-1.64-3.63-3.91-9.45-8.66-21.6" fill="white"/>
<path class="cls-2" d="M199.87,176.92c33.7,3.44,49.51,17.76,51.86,29.59a4.23,4.23,0,0,1-2.43,4.7C236.43,216.94,216,205.85,198,180" fill="white"/>
<rect class="cls-2" x="92.89" y="113.06" width="10.2" height="11.16" transform="translate(-54.1 142.05) rotate(-59.19)" fill="white"/>
<line class="cls-2" x1="100.26" y1="114.85" x2="95.38" y2="123.03" fill="white"/>
<path class="cls-2" d="M95.81,111.4C88.38,81.07,74.68,69.52,60.33,70.84,37.5,73,29,102.53,47,116.7c.41.33.83.64,1.26,1a29.43,29.43,0,0,0,19.22,5.16c4-.28,10.17-1,23.13-2.64" fill="white"/>
<path class="cls-2" d="M94.28,114c-19-28-39.16-35.11-50.69-31.55a4.22,4.22,0,0,0-3,4.37c1.09,14,20.56,26.76,51.82,30.29" fill="white"/></g></g></svg>