<svg xmlns="http://www.w3.org/2000/svg" viewBox="0 0 293.28 289.11">
<defs><style>.cls-1{fill:#0f0f0f;}.cls-2{fill:#fff;}.cls-3,.cls-4{fill:none;stroke:#fff;stroke-linecap:round;stroke-linejoin:round;}.cls-3{stroke-width:6px;}.cls-4{stroke-width:7px;}</style></defs>
<g id="Layer_2" data-name="Layer 2">
<g id="Layer_4" data-name="Layer 4">
<path class="cls-1" d="M293.28,144.56C290,337.31,3.26,337.28,0,144.55,3.29-48.2,290-48.17,293.28,144.56Z"/>
<path class="cls-2" d="M100.24,103.57c-.07,15.32-23.36,15.32-23.43,0S100.17,88.25,100.24,103.57Z" fill="white"/>
<line class="cls-3" x1="87.59" y1="91.57" x2="87.59" y2="57.29" fill="white" />
<path class="cls-2" d="M233.69,212.35c-.06,15.32-23.36,15.32-23.42,0S233.63,197,233.69,212.35Z" fill="white"/>
<path class="cls-2" d="M253.92,135.28c0-18.87-14-32.76-32.26-32.65-24.11.14-39.42,26.22-27.58,47.18,8.17,14.46,17.41,28.26,26.28,42.29,1.5,2.38,2.32,1.73,3.54-.19,8.32-13.06,16.69-26.08,24.67-39.36C251.93,147,254.33,141.17,253.92,135.28Zm-31.79,12.78a13.38,13.38,0,0,1-13.44-13.49,13.39,13.39,0,1,1,26.77-.12A13.38,13.38,0,0,1,222.13,148.06Z" fill="white"/>
<path class="cls-2" d="M87.59,58.57H111A3.07,3.07,0,0,1,114,61.63v15A3.07,3.07,0,0,1,111,79.65H87.59" fill="white"/>
<path class="cls-4" d="M98.13,103.57h53.61a15.51,15.51,0,0,1,15.51,15.51h0a15.51,15.51,0,0,1-15.51,15.5H113.08A38.89,38.89,0,0,0,74.2,173.47h0a38.88,38.88,0,0,0,38.88,38.88h99.4" fill="white"/></g></g></svg>