<svg xmlns="http://www.w3.org/2000/svg" viewBox="0 0 293.28 293.28"><defs><style>.cls-1{fill:#0f0f0f;}.cls-2{fill:none;stroke:#fff;stroke-linecap:round;stroke-linejoin:round;stroke-width:6px;}</style></defs><g id="Layer_2" data-name="Layer 2"><g id="Layer_10" data-name="Layer 10"><circle class="cls-1" cx="146.64" cy="146.64" r="146.64"/><line class="cls-2" x1="60.59" y1="127.1" x2="46.01" y2="141.34"/><path class="cls-2" d="M135.88,178.64a39.58,39.58,0,1,1-39.57-39.57A39.39,39.39,0,0,1,135.88,178.64Z"/><path class="cls-2" d="M107.26,178.64a11.19,11.19,0,0,1-.21,2.18,11,11,0,1,1,.21-2.18Z"/><line class="cls-2" x1="96.31" y1="139.07" x2="96.31" y2="148.72"/><line class="cls-2" x1="96.31" y1="208.55" x2="96.31" y2="218.2"/><line class="cls-2" x1="132.03" y1="161.62" x2="123.32" y2="165.77"/><line class="cls-2" x1="69.31" y1="191.5" x2="60.59" y2="195.65"/><line class="cls-2" x1="128.93" y1="201.03" x2="120.98" y2="195.57"/><line class="cls-2" x1="71.65" y1="161.71" x2="63.7" y2="156.25"/><path class="cls-2" d="M242.06,178.64a39.58,39.58,0,1,1-39.57-39.57A39.39,39.39,0,0,1,242.06,178.64Z"/><path class="cls-2" d="M213.44,178.64a10.47,10.47,0,0,1-.22,2.18,10.95,10.95,0,1,1,.22-2.18Z"/><line class="cls-2" x1="202.49" y1="139.07" x2="202.49" y2="148.72"/><line class="cls-2" x1="202.49" y1="208.55" x2="202.49" y2="218.2"/><line class="cls-2" x1="238.21" y1="161.62" x2="229.5" y2="165.77"/><line class="cls-2" x1="175.48" y1="191.5" x2="166.77" y2="195.65"/><line class="cls-2" x1="235.11" y1="201.03" x2="227.15" y2="195.57"/><line class="cls-2" x1="177.83" y1="161.71" x2="169.87" y2="156.25"/><polyline class="cls-2" points="60.59 161.62 60.59 124.72 231.71 124.72 231.71 151.96"/><line class="cls-2" x1="162.93" y1="188.95" x2="135.88" y2="188.95"/><polyline class="cls-2" points="60.59 124.73 49.3 124.73 64.95 109.86 236.06 109.86 246.41 124.73 231.71 124.73"/><polyline class="cls-2" points="124.95 124.73 146.15 146.16 167.73 124.73"/><line class="cls-2" x1="233.85" y1="127.1" x2="247.26" y2="139.07"/><polyline class="cls-2" points="96.32 107.23 96.32 81.87 88.2 75.08"/></g></g></svg>